<svg xmlns="http://www.w3.org/2000/svg" xmlns:xlink="http://www.w3.org/1999/xlink" width="500" zoomAndPan="magnify" viewBox="0 0 375 374.999991" height="500" preserveAspectRatio="xMidYMid meet" version="1.0"><defs><clipPath id="8a3b8299f1"><path d="M 92.25 181 L 286.5 181 L 286.5 196 L 92.25 196 Z M 92.25 181 " clip-rule="nonzero"/></clipPath><clipPath id="dbea120ec2"><path d="M 134 207 L 245 207 L 245 246.597656 L 134 246.597656 Z M 134 207 " clip-rule="nonzero"/></clipPath><clipPath id="c5a9eec2d1"><path d="M 134 130.347656 L 245 130.347656 L 245 169 L 134 169 Z M 134 130.347656 " clip-rule="nonzero"/></clipPath></defs><rect x="-37.5" width="450" fill="#ffffff" y="-37.499999" height="449.999989" fill-opacity="1"/><rect x="-37.5" width="450" fill="#ffffff" y="-37.499999" height="449.999989" fill-opacity="1"/><rect x="-37.5" width="450" fill="#000000" y="-37.499999" height="449.999989" fill-opacity="1"/><path fill="#3871c1" d="M 222.992188 210.578125 C 223.53125 209.761719 224.042969 208.925781 224.523438 208.070312 L 211.582031 208.070312 C 206.148438 214.191406 198.214844 218.054688 189.375 218.054688 C 180.535156 218.054688 172.597656 214.191406 167.167969 208.070312 L 154.226562 208.070312 C 154.707031 208.925781 155.21875 209.761719 155.753906 210.578125 L 153.105469 216.132812 C 155.566406 219.335938 158.4375 222.203125 161.648438 224.65625 L 167.222656 222.011719 C 171.421875 224.777344 176.167969 226.785156 181.269531 227.824219 L 183.335938 233.617188 C 185.3125 233.878906 187.328125 234.015625 189.375 234.015625 C 191.421875 234.015625 193.4375 233.878906 195.414062 233.617188 L 197.476562 227.824219 C 202.578125 226.785156 207.328125 224.777344 211.527344 222.011719 L 217.097656 224.65625 C 220.308594 222.203125 223.183594 219.335938 225.640625 216.132812 L 222.992188 210.578125 " fill-opacity="1" fill-rule="nonzero"/><path fill="#00adef" d="M 222.992188 166.382812 C 223.53125 167.199219 224.042969 168.035156 224.523438 168.890625 L 211.582031 168.890625 C 206.148438 162.769531 198.214844 158.910156 189.375 158.910156 C 180.535156 158.910156 172.597656 162.769531 167.167969 168.890625 L 154.226562 168.890625 C 154.707031 168.035156 155.21875 167.199219 155.753906 166.382812 L 153.105469 160.828125 C 155.566406 157.625 158.4375 154.757812 161.648438 152.308594 L 167.222656 154.949219 C 171.421875 152.183594 176.167969 150.175781 181.269531 149.136719 L 183.335938 143.34375 C 185.3125 143.082031 187.328125 142.945312 189.375 142.945312 C 191.421875 142.945312 193.4375 143.082031 195.414062 143.34375 L 197.476562 149.136719 C 202.578125 150.175781 207.328125 152.183594 211.527344 154.949219 L 217.097656 152.308594 C 220.308594 154.757812 223.183594 157.625 225.640625 160.828125 L 222.992188 166.382812 " fill-opacity="1" fill-rule="nonzero"/><g clip-path="url(#8a3b8299f1)"><path fill="#00adef" d="M 279.550781 192.246094 C 277.46875 192.246094 275.777344 190.558594 275.777344 188.480469 C 275.777344 186.402344 277.46875 184.714844 279.550781 184.714844 C 281.636719 184.714844 283.328125 186.402344 283.328125 188.480469 C 283.328125 190.558594 281.636719 192.246094 279.550781 192.246094 Z M 99.195312 192.246094 C 97.113281 192.246094 95.421875 190.558594 95.421875 188.480469 C 95.421875 186.402344 97.113281 184.714844 99.195312 184.714844 C 101.28125 184.714844 102.96875 186.402344 102.96875 188.480469 C 102.96875 190.558594 101.28125 192.246094 99.195312 192.246094 Z M 279.550781 181.554688 C 276.644531 181.554688 274.152344 183.339844 273.121094 185.871094 L 105.628906 185.871094 C 104.59375 183.339844 102.105469 181.554688 99.195312 181.554688 C 95.363281 181.554688 92.253906 184.65625 92.253906 188.480469 C 92.253906 192.304688 95.363281 195.40625 99.195312 195.40625 C 102.105469 195.40625 104.59375 193.621094 105.628906 191.09375 L 273.121094 191.09375 C 274.152344 193.621094 276.644531 195.40625 279.550781 195.40625 C 283.386719 195.40625 286.496094 192.304688 286.496094 188.480469 C 286.496094 184.65625 283.386719 181.554688 279.550781 181.554688 " fill-opacity="1" fill-rule="nonzero"/></g><path fill="#3871c1" d="M 261.117188 205.671875 C 259.03125 205.671875 257.34375 203.984375 257.34375 201.902344 C 257.34375 199.824219 259.03125 198.140625 261.117188 198.140625 C 263.203125 198.140625 264.890625 199.824219 264.890625 201.902344 C 264.890625 203.984375 263.203125 205.671875 261.117188 205.671875 Z M 117.632812 205.671875 C 115.546875 205.671875 113.855469 203.984375 113.855469 201.902344 C 113.855469 199.824219 115.546875 198.140625 117.632812 198.140625 C 119.714844 198.140625 121.40625 199.824219 121.40625 201.902344 C 121.40625 203.984375 119.714844 205.671875 117.632812 205.671875 Z M 261.117188 194.976562 C 258.207031 194.976562 255.71875 196.765625 254.683594 199.292969 L 124.0625 199.292969 C 123.03125 196.765625 120.539062 194.976562 117.632812 194.976562 C 113.796875 194.976562 110.6875 198.078125 110.6875 201.902344 C 110.6875 205.730469 113.796875 208.832031 117.632812 208.832031 C 120.539062 208.832031 123.03125 207.046875 124.0625 204.515625 L 254.683594 204.515625 C 255.71875 207.046875 258.207031 208.832031 261.117188 208.832031 C 264.949219 208.832031 268.058594 205.730469 268.058594 201.902344 C 268.058594 198.078125 264.949219 194.976562 261.117188 194.976562 " fill-opacity="1" fill-rule="nonzero"/><g clip-path="url(#dbea120ec2)"><path fill="#3871c1" d="M 237.730469 207.960938 C 230 227.03125 211.265625 240.488281 189.375 240.488281 C 167.484375 240.488281 148.746094 227.03125 141.019531 207.960938 L 134.460938 207.960938 C 142.492188 230.480469 164.042969 246.601562 189.375 246.601562 C 214.707031 246.601562 236.257812 230.480469 244.289062 207.960938 L 237.730469 207.960938 " fill-opacity="1" fill-rule="nonzero"/></g><g clip-path="url(#c5a9eec2d1)"><path fill="#00adef" d="M 141.019531 169 C 148.746094 149.929688 167.484375 136.472656 189.375 136.472656 C 211.265625 136.472656 230 149.929688 237.730469 169 L 244.289062 169 C 236.257812 146.480469 214.707031 130.359375 189.375 130.359375 C 164.042969 130.359375 142.492188 146.480469 134.460938 169 L 141.019531 169 " fill-opacity="1" fill-rule="nonzero"/></g><path fill="#00adef" d="M 261.117188 178.820312 C 259.03125 178.820312 257.34375 177.136719 257.34375 175.058594 C 257.34375 172.976562 259.03125 171.292969 261.117188 171.292969 C 263.203125 171.292969 264.890625 172.976562 264.890625 175.058594 C 264.890625 177.136719 263.203125 178.820312 261.117188 178.820312 Z M 117.632812 178.820312 C 115.546875 178.820312 113.855469 177.136719 113.855469 175.058594 C 113.855469 172.976562 115.546875 171.292969 117.632812 171.292969 C 119.714844 171.292969 121.40625 172.976562 121.40625 175.058594 C 121.40625 177.136719 119.714844 178.820312 117.632812 178.820312 Z M 261.117188 168.128906 C 258.207031 168.128906 255.71875 169.914062 254.683594 172.445312 L 124.0625 172.445312 C 123.03125 169.914062 120.539062 168.128906 117.632812 168.128906 C 113.796875 168.128906 110.6875 171.230469 110.6875 175.058594 C 110.6875 178.882812 113.796875 181.984375 117.632812 181.984375 C 120.539062 181.984375 123.03125 180.199219 124.0625 177.667969 L 254.683594 177.667969 C 255.71875 180.199219 258.207031 181.984375 261.117188 181.984375 C 264.949219 181.984375 268.058594 178.882812 268.058594 175.058594 C 268.058594 171.230469 264.949219 168.128906 261.117188 168.128906 " fill-opacity="1" fill-rule="nonzero"/></svg>